/vscmnt/brussel_pixiu_data/_data_brussel/112/vsc11236/PredSimResults/SUBJ09mtu3D/worker1.mot
version=1
nRows=10
nColumns=50
inDegrees=yes
endheader
                time	         pelvis_tilt	         pelvis_list	     pelvis_rotation	           pelvis_tx	           pelvis_ty	           pelvis_tz	       hip_flexion_r	     hip_adduction_r	      hip_rotation_r	        knee_angle_r	       ankle_angle_r	         mtp_angle_r	       hip_flexion_l	     hip_adduction_l	      hip_rotation_l	        knee_angle_l	       ankle_angle_l	         mtp_angle_l	    lumbar_extension	      lumbar_bending	     lumbar_rotation	 ercspn_r/activation	 intobl_r/activation	 extobl_r/activation	    abd_r/activation	    add_r/activation	hamstrings_r/activation	bifemsh_r/activation	glut_max_r/activation	iliopsoas_r/activation	rect_fem_r/activation	  vasti_r/activation	gastroc_r/activation	 soleus_r/activation	tib_ant_r/activation	 ercspn_l/activation	 intobl_l/activation	 extobl_l/activation	    abd_l/activation	    add_l/activation	hamstrings_l/activation	bifemsh_l/activation	glut_max_l/activation	iliopsoas_l/activation	rect_fem_l/activation	  vasti_l/activation	gastroc_l/activation	 soleus_l/activation	tib_ant_l/activation	
          1.18159895	         -2.37987499	         -2.53443199	          6.61933804	          1.46518270	          0.99437166	         -0.00371737	         23.26799317	          1.60965572	          1.96571930	          0.84232077	          3.47549214	          0.23279280	        -14.39917291	         -2.91693419	          4.34341933	         -9.86704298	          9.24436626	         29.44563961	        -12.99813383	          1.16799653	         -4.55899719	          0.04814153	          0.17876107	          0.04212683	          0.03234286	          0.08833695	          0.04220003	          0.19031931	          0.01108987	          0.07126584	          0.01651180	          0.01139928	          0.00999999	          0.00999999	          0.28792536	          0.00999999	          0.00999999	          0.00999999	          0.05042300	          0.00999999	          0.00999999	          0.19648454	          0.02456683	          0.28208770	          0.00999999	          0.00999999	          0.38968513	          0.22519367	          0.00999999	
          1.19341494	         -2.39277934	         -2.59353643	          6.50608831	          1.48370064	          0.99242273	         -0.00325553	         22.65130049	          1.92314808	          1.99811738	          0.40766432	          2.68934754	          0.24089191	        -14.82546538	         -3.00667252	          3.83444761	        -11.04067521	          8.44342686	         31.30133845	        -12.58188207	          1.51675917	         -4.66238824	          0.04022073	          0.14934925	          0.03519564	          0.03715788	          0.09904157	          0.03525680	          0.15900580	          0.06506849	          0.05954037	          0.01379509	          0.01196932	          0.01714783	          0.01539923	          0.29585460	          0.03254408	          0.00999999	          0.00999999	          0.04212683	          0.02445409	          0.02513193	          0.16415666	          0.02052481	          0.28787578	          0.00999999	          0.00999999	          0.36118450	          0.18814222	          0.00999999	
          1.20523093	         -2.39090169	         -2.68530769	          6.35130592	          1.50236449	          0.99073969	         -0.00277195	         21.96932185	          2.24020306	          2.00840767	         -0.19003845	          2.01359305	          0.21758013	        -15.04140842	         -3.10963075	          3.29027005	        -12.62615060	          7.53653111	         33.16315772	        -12.16412277	          1.91590379	         -4.73590788	          0.03360316	          0.12477660	          0.02940485	          0.10159803	          0.08274612	          0.04383779	          0.13284434	          0.06603551	          0.04974410	          0.01152536	          0.00999999	          0.01432648	          0.01286558	          0.36613519	          0.03379803	          0.00999999	          0.00999999	          0.03519564	          0.02043063	          0.02440373	          0.13714774	          0.01714784	          0.26261816	          0.00999999	          0.00999999	          0.32844796	          0.15718691	          0.00999999	
          1.21704692	         -2.37993141	         -2.79711669	          6.15474483	          1.52088478	          0.98959070	         -0.00225193	         21.21423149	          2.57209525	          1.98925700	         -0.62171871	          1.19675762	          0.18733881	        -14.95119036	         -3.21309607	          2.71745826	        -14.73287964	          6.44465294	         34.99356592	        -11.77626721	          2.34806189	         -4.77688886	          0.02807438	          0.10424693	          0.02456683	          0.14277113	          0.08446976	          0.04239959	          0.11098727	          0.08033705	          0.04155963	          0.00999999	          0.01000000	          0.01196932	          0.01074878	          0.40604128	          0.05924169	          0.00999999	          0.00999999	          0.02940485	          0.02003283	          0.02767449	          0.11458262	          0.01432648	          0.22682891	          0.00999999	          0.00999999	          0.27440794	          0.13132472	          0.00999999	
          1.22886291	         -2.36240894	         -2.92023968	          5.92087076	          1.53902405	          0.98916266	         -0.00170178	         20.45830202	          2.91484439	          1.96099298	         -1.06965395	          0.61594219	          0.14903224	        -14.49460395	         -3.31393826	          2.12858279	        -17.41860547	          5.13456967	         36.62688873	        -11.44374735	          2.80232721	         -4.78664194	          0.02918602	          0.08709503	          0.02052481	          0.17755635	          0.10006430	          0.04415614	          0.09272637	          0.09653421	          0.03472177	          0.00999999	          0.01000003	          0.00999999	          0.00999999	          0.42418290	          0.08300998	          0.00999999	          0.00999999	          0.02456683	          0.04055532	          0.02586294	          0.10570095	          0.01196932	          0.18950842	          0.00999999	          0.00999999	          0.22925920	          0.10971767	          0.00999999	
          1.24067890	         -2.34063961	         -3.03572267	          5.64942586	          1.55661651	          0.98958442	         -0.00113942	         19.72124797	          3.24683025	          1.92351323	         -1.56564435	          0.34946756	          0.11504289	        -13.63367030	         -3.39953525	          1.53751873	        -20.71351267	          3.63983827	         37.70738483	        -11.18362792	          3.25683368	         -4.76395620	          0.02456683	          0.07276516	          0.01714783	          0.19336492	          0.11411698	          0.04399443	          0.07746997	          0.11555615	          0.02900894	          0.00999999	          0.02046650	          0.00999999	          0.01172017	          0.41428520	          0.09888237	          0.00999999	          0.00999999	          0.02052481	          0.06829849	          0.02160767	          0.09345254	          0.00999999	          0.15832832	          0.00999999	          0.00999999	          0.19153885	          0.09166566	          0.00999999	
          1.25249489	         -2.31659533	         -3.12475795	          5.33890485	          1.57356681	          0.99092046	         -0.00059277	         18.98862047	          3.54541968	          1.88958813	         -2.06206548	          0.34986658	          0.09153685	        -12.35139147	         -3.45854524	          0.96018118	        -24.61166679	          1.96694760	         37.91354660	        -11.00489565	          3.69087643	         -4.70648449	          0.02052481	          0.06079300	          0.01432648	          0.18977985	          0.14304152	          0.05018115	          0.06472372	          0.11651205	          0.02423606	          0.00999999	          0.01790166	          0.00999999	          0.01691945	          0.39119650	          0.09732183	          0.00999999	          0.00999999	          0.01714783	          0.09650026	          0.01915885	          0.09939931	          0.00999999	          0.13227833	          0.00999999	          0.00999999	          0.16002468	          0.07658378	          0.00999999	
          1.26431088	         -2.29001882	         -3.16754729	          4.98752139	          1.58990011	          0.99305651	         -0.00008877	         18.23857734	          3.78701910	          1.86902002	         -2.50881394	          0.52442366	          0.08047217	        -10.68198684	         -3.47652943	          0.42498219	        -28.99442879	         -0.03142138	         37.26274486	        -10.90367662	          4.08257193	         -4.61240483	          0.01714783	          0.05079064	          0.01196932	          0.17774210	          0.15816251	          0.06165430	          0.05407463	          0.10559221	          0.02024847	          0.00999999	          0.01700070	          0.01000002	          0.01714783	          0.36046829	          0.08130933	          0.00999999	          0.00999999	          0.01432648	          0.11727258	          0.01714783	          0.08654736	          0.00999999	          0.11051439	          0.00999999	          0.00999999	          0.13369559	          0.06398334	          0.01509223	
          1.27612687	         -2.26019373	         -3.15268873	          4.60053467	          1.60570361	          0.99574373	          0.00034430	         17.45919552	          3.95581879	          1.87437273	         -2.88134532	          0.78762850	          0.08196247	         -8.70084367	         -3.44367776	         -0.03934824	        -33.69517513	         -2.28667834	         35.53632012	        -10.86734528	          4.41921960	         -4.48449969	          0.01432648	          0.04243398	          0.00999999	          0.17248696	          0.13213980	          0.05868407	          0.04517765	          0.09086032	          0.01691696	          0.00999999	          0.01685792	          0.00999999	          0.01432648	          0.33351872	          0.07582596	          0.04218215	          0.01373915	          0.01196932	          0.09797755	          0.01432648	          0.07687083	          0.00999999	          0.09233129	          0.00999999	          0.00999999	          0.11169846	          0.05345606	          0.06164111	
          1.28794286	         -2.22516749	         -3.08128685	          4.18726889	          1.62105309	          0.99868109	          0.00070368	         16.65358399	          4.05137542	          1.92498814	         -3.17935508	          1.04927696	          0.09330534	         -6.51602681	         -3.35647450	         -0.42272763	        -38.55937134	         -4.35371172	         32.27802339	        -10.88589799	          4.69595512	         -4.32371872	          0.01196932	          0.03545225	          0.00999999	          0.15975393	          0.11039865	          0.05191469	          0.03774451	          0.07652585	          0.01413358	          0.00999999	          0.01604363	          0.00999999	          0.01196932	          0.31269504	          0.09550598	          0.07015036	          0.05938740	          0.00999999	          0.08185716	          0.01196932	          0.06422316	          0.00999999	          0.07713989	          0.00999999	          0.00999999	          0.09332055	          0.04466086	          0.17706626	
